<?xml version="1.0" standalone="no"?>
<!DOCTYPE svg PUBLIC "-//W3C//DTD SVG 20010904//EN"
 "http://www.w3.org/TR/2001/REC-SVG-20010904/DTD/svg10.dtd">
<svg version="1.0" xmlns="http://www.w3.org/2000/svg"
 width="380.000000pt" height="380.000000pt" viewBox="0 0 380.000000 380.000000"
 preserveAspectRatio="xMidYMid meet">
<metadata>
Created by potrace 1.14, written by Peter Selinger 2001-2017
</metadata>
<g transform="translate(0.000000,380.000000) scale(0.100000,-0.100000)"
fill="#000000" stroke="none">
<path d="M1734 3414 c-255 -36 -496 -133 -689 -276 -76 -56 -243 -218 -292
-283 -205 -269 -314 -576 -317 -895 -1 -175 8 -265 43 -402 138 -546 578 -978
1117 -1097 133 -29 158 -32 294 -36 336 -9 671 97 931 292 89 67 238 215 301
298 298 395 384 918 228 1387 -131 391 -421 715 -796 889 -87 40 -244 91 -334
108 -30 6 -68 13 -85 16 -66 12 -314 12 -401 -1z"/>
</g>
</svg>
